<?xml version="1.0" standalone="no"?>
<!DOCTYPE svg PUBLIC "-//W3C//DTD SVG 20010904//EN"
 "http://www.w3.org/TR/2001/REC-SVG-20010904/DTD/svg10.dtd">
<svg version="1.0" xmlns="http://www.w3.org/2000/svg"
 width="298.000000pt" height="298.000000pt" viewBox="0 0 298.000000 298.000000"
 preserveAspectRatio="xMidYMid meet">
<metadata>
Created by potrace 1.14, written by Peter Selinger 2001-2017
</metadata>
<g transform="translate(0.000000,298.000000) scale(0.100000,-0.100000)"
fill="#000000" stroke="none">
<path d="M1220 2958 c-25 -3 -54 -9 -65 -11 -11 -3 -23 -6 -27 -6 -5 -1 -26
-17 -48 -37 -60 -54 -73 -110 -70 -303 6 -456 5 -641 -5 -642 -5 -1 -188 -2
-405 -4 -263 -1 -409 -6 -436 -13 -64 -19 -107 -52 -134 -107 l-25 -50 1 -310
c0 -343 2 -356 65 -408 18 -14 57 -34 88 -43 58 -18 97 -19 566 -11 160 3 269
-4 283 -18 3 -3 6 -173 7 -378 1 -427 8 -478 69 -545 22 -25 64 -50 99 -59 44
-11 581 -13 622 -2 75 20 136 90 152 174 8 41 10 298 3 331 -5 20 -4 34 2 34
5 0 7 4 3 9 -8 14 -9 426 -1 439 5 8 136 11 409 12 221 1 414 3 428 5 35 4 79
28 105 57 47 51 56 85 62 232 6 159 6 421 0 451 -23 108 -74 173 -151 192 -12
3 -205 6 -429 7 -302 1 -410 4 -419 13 -11 11 -15 95 -9 228 1 22 0 173 -2
335 l-3 295 -29 42 c-60 89 -125 104 -436 101 -124 -2 -245 -6 -270 -10z"/>
</g>
</svg>
